<svg height="297mm" viewBox="0 0 210 297" width="210mm" xmlns="http://www.w3.org/2000/svg"><g transform="matrix(.24402207259 -.1022622455 .1022622455 .24402207259 24.08862534887 54.84979348127)"><g fill="#999"><path d="m341.52196 20.30788c-7.13405 12.955269-13.41083 26.034642-19.32334 39.605798-5.6623 11.85762-13.28693 25.178771-15.64806 38.391672-1.48821 7.21762 9.14706 12.26463 13.57055 5.9117 0 0 .49059-.36588.12471-.85647 2.20352-.11647 3.91725.13234 6.48586.50704.36588.49059 1.58743 1.10647 1.95331 1.59706 1.22235.61529 2.93529.86469 4.64902 1.1135 5.53068 37.1022 12.04253 73.47264 13.65675 110.44191.58239 11.01761.3075 21.91111-1.31284 33.04459-34.35874-13.31161-81.45704-23.22966-108.33921 5.21737-35.23035 37.72703 19.40893 64.92361 51.48117 63.90903 38.55751-.50835 59.4115-17.58835 68.19137-50.85766 22.25171 9.36225 43.02365 22.88074 55.57992 41.76556 31.09179 44.75975-2.6674 81.38833-43.95192 94.61899-4.60709-16.41405-14.11121-32.22845-26.56826-42.78918-22.10233-19.39869-72.79155-13.65974-81.32201 17.89665-8.03988 31.1905 60.46932 44.22672 78.95456 43.42041 5.26351-.10825 11.01701-.58319 16.40522-1.54791-.1247.85647.24178 1.34786.11648 2.20352 3.77661 52.15275-48.83382 44.05528-81.23021 29.28014-4.8894-2.46115-7.72467 4.99765-3.32585 7.82469 30.67524 17.58572 76.41746 30.80554 94.15257-9.90613 4.06584-9.9035 5.68698-21.03759 4.24813-32.17989 35.03161-9.33066 66.42987-32.74774 67.75836-71.91171 1.59515-46.99748-41.66044-74.28726-78.58036-91.03298.1239-.85587.1239-.85587.24941-1.71293 7.83983-47.8375-3.52852-98.90904-11.47922-146.42179 5.26351-.10825 11.01841-.58298 16.28112-.69063 3.55137-.35826 6.61959-3.41002 7.1176-6.83529 1.78697-27.290498-2.42133-55.453914-15.45195-80.091433-2.55235-6.493285-10.87505-6.393859-14.44288.08437zm-3.88451 260.9465c-10.59283 24.69641-39.1139 25.35414-62.36324 22.84363-30.59166-3.14225-45.80935-33.78327-13.82067-49.24133 16.42227-7.66708 37.21868-3.32716 54.22333.0234 8.93056 1.73761 18.59309 4.455 28.13071 8.03025-1.3629 6.36196-3.58368 12.59901-6.17013 18.34408zm16.5509 126.60655s-.49059.36588 0 0c-18.36756 3.01143-35.49752.51657-52.49335-5.89314-7.4588-2.83526-14.7929-6.52699-21.02113-11.80695-17.34586-13.02108 15.36575-24.43878 24.79512-26.12704 26.32578-3.60124 42.41638 21.0445 48.71936 43.82713zm1.82907-315.909821c-.49059.365882-.85647-.124703-1.34706.241179-1.09764-1.471756-3.17726-2.211149-5.87057-1.729388-4.53174 1.089421-9.42937 1.688257-14.3278 2.287691-2.20352.116476-7.34233-.631741-6.61056.34943-.36589-.490586-1.22235-.615288-1.71294-.249406 3.20034-6.967622 5.67053-14.91761 8.87087-21.885232 3.94113-9.047037 8.37285-18.459957 12.80538-27.873476 5.71456 14.824617 8.48402 31.845723 8.19268 48.859202z"/><text font-family="sans-serif" font-size="40" transform="matrix(.92228816 .38650298 -.38650298 .92228816 0 0)" x="140.38495" y="381.26511"><tspan fill="#999" font-family="Roboto" font-size="53.3333" font-weight="bold" x="140.38495" y="381.26511">Nothing To Show</tspan><tspan x="140.38495" y="437.7583"/></text><text font-family="sans-serif" font-size="40" transform="matrix(.92228816 .38650298 -.38650298 .92228816 0 0)" x="139.67065" y="429.83652"><tspan font-family="Roboto" font-size="45.3333" x="139.67065" y="429.83652">(Try Changing Filter)</tspan></text></g><text/><text/><text/></g></svg>