<?xml version="1.0" standalone="no"?>
<!DOCTYPE svg PUBLIC "-//W3C//DTD SVG 20010904//EN"
 "http://www.w3.org/TR/2001/REC-SVG-20010904/DTD/svg10.dtd">
<svg version="1.0" xmlns="http://www.w3.org/2000/svg"
 width="200.000000pt" height="200.000000pt" viewBox="0 0 200.000000 200.000000"
 preserveAspectRatio="xMidYMid meet">
<metadata>
Created by potrace 1.11, written by Peter Selinger 2001-2013
</metadata>
<g transform="translate(0.000000,200.000000) scale(0.100000,-0.100000)"
fill="#000000" stroke="none">
<path d="M458 1534 c-62 -26 -73 -63 -72 -235 1 -220 20 -239 234 -239 66 0
121 3 121 8 4 22 5 99 1 110 -3 8 -31 12 -92 12 -62 0 -91 4 -99 14 -14 16
-13 172 0 199 8 14 24 17 99 17 50 0 90 3 91 8 4 28 5 99 1 110 -6 19 -236 16
-284 -4z"/>
<path d="M871 1533 c-20 -10 -39 -30 -47 -50 -18 -43 -18 -147 1 -182 18 -36
44 -47 165 -66 35 -6 55 -24 42 -37 -4 -4 -54 -9 -112 -10 l-105 -3 0 -60 0
-60 137 -3 c206 -4 238 17 238 159 0 113 -25 135 -172 154 -38 5 -48 10 -48
25 0 17 9 20 98 22 l97 3 0 60 0 60 -130 2 c-105 2 -136 0 -164 -14z"/>
<path d="M1269 1525 c0 -14 -1 -117 -1 -230 0 -113 1 -212 1 -220 1 -13 28
-15 181 -15 137 0 180 3 181 13 3 39 0 98 -6 107 -4 6 -47 10 -106 10 l-99 0
0 29 0 28 69 0 c37 0 73 3 78 6 6 4 10 30 9 59 l-1 53 -77 3 c-75 3 -78 4 -78
27 0 27 4 28 138 26 56 -1 63 1 71 21 5 13 7 30 5 38 -1 8 -3 27 -3 43 l-1 27
-180 0 -180 0 -1 -25z"/>
<path d="M651 949 c-51 -16 -78 -37 -90 -71 -6 -17 -11 -98 -11 -180 0 -165 8
-196 59 -223 63 -32 219 -35 287 -5 61 27 68 48 70 222 2 178 -6 208 -64 242
-40 22 -196 32 -251 15z m156 -132 c2 -3 4 -53 5 -112 0 -118 -3 -125 -59
-125 -43 0 -50 17 -48 120 3 117 3 118 23 123 19 5 71 1 79 -6z"/>
<path d="M1580 948 c-85 -24 -99 -62 -96 -259 2 -168 7 -183 60 -215 44 -27
245 -28 293 -1 55 30 63 58 63 229 0 188 -9 213 -86 240 -55 19 -178 22 -234
6z m159 -133 c11 -6 9 -205 -2 -222 -11 -17 -72 -17 -89 0 -18 18 -16 216 2
227 13 8 74 5 89 -5z"/>
<path d="M129 923 c-1 -16 -2 -35 -3 -43 -1 -8 1 -24 5 -35 5 -17 17 -21 95
-25 116 -7 119 -24 12 -60 -88 -30 -106 -43 -125 -87 -16 -38 -18 -199 -3
-208 19 -12 353 -6 360 5 8 12 4 96 -5 110 -3 5 -31 9 -63 9 -141 -1 -152 0
-146 16 4 8 32 22 63 31 79 23 128 52 142 86 17 43 14 151 -6 181 -24 38 -65
47 -201 47 l-124 0 -1 -27z"/>
<path d="M1064 936 c-3 -7 -4 -35 -2 -62 l3 -49 93 -3 c82 -2 93 -5 90 -20 -2
-11 -30 -26 -81 -44 -88 -30 -105 -41 -119 -78 -13 -32 -19 -208 -7 -216 12
-7 346 -7 358 1 6 3 11 30 11 60 0 39 -4 54 -16 59 -9 3 -58 6 -110 6 -112 0
-126 16 -36 44 136 43 164 75 158 183 -7 117 -33 133 -211 133 -97 0 -127 -3
-131 -14z"/>
</g>
</svg>
